<svg xmlns="http://www.w3.org/2000/svg" width="256" height="256" viewBox="0 0 256 256"><rect width="100%" height="100%" fill="#DDDDDD"/><path fill="#999999" d="M72.5 114.495v4.2h-8.29v23.27H59.1v-23.27h-8.28v-4.2zm7.56-.76v10.83q1.14-1.07 2.51-1.73 1.37-.67 3.21-.67 1.6 0 2.83.54 1.24.55 2.06 1.52.83.98 1.26 2.34.42 1.36.42 2.99v12.41h-4.69v-12.41q0-1.78-.82-2.76-.81-.98-2.49-.98-1.21 0-2.28.55-1.06.55-2.01 1.5v14.1h-4.69v-28.23zm28.84 8.74h4.7v19.49h-2.87q-.93 0-1.18-.85l-.32-1.56q-1.2 1.21-2.65 1.96-1.44.75-3.4.75-1.59 0-2.82-.54-1.22-.54-2.06-1.53-.84-.98-1.26-2.34-.43-1.36-.43-3v-12.38h4.69v12.38q0 1.79.83 2.77t2.48.98q1.21 0 2.28-.54 1.06-.55 2.01-1.5zm14.02 19.49h-4.69v-19.49h2.87q.91 0 1.2.85l.3 1.44q.51-.57 1.07-1.04.57-.47 1.2-.82.64-.34 1.37-.54t1.61-.2q1.84 0 3.03 1 1.18 1 1.77 2.65.46-.97 1.14-1.66.69-.7 1.5-1.13.82-.44 1.74-.65t1.85-.21q1.62 0 2.87.5 1.26.49 2.11 1.44.86.95 1.3 2.32.45 1.37.45 3.13v12.41h-4.69v-12.41q0-1.86-.82-2.8t-2.39-.94q-.73 0-1.34.25-.62.24-1.09.71-.46.47-.73 1.17-.26.7-.26 1.61v12.41h-4.72v-12.41q0-1.95-.78-2.85-.79-.89-2.31-.89-1.03 0-1.91.5-.89.51-1.65 1.38zm31.2-18.64.33 1.54q.58-.59 1.24-1.09.66-.51 1.39-.86t1.56-.55q.84-.2 1.83-.2 1.59 0 2.83.54 1.23.55 2.06 1.52.83.98 1.25 2.34.43 1.36.43 2.99v12.41h-4.69v-12.41q0-1.78-.82-2.76-.81-.98-2.49-.98-1.21 0-2.28.55-1.06.55-2.01 1.5v14.1h-4.69v-19.49h2.87q.91 0 1.19.85m27.67 13.6v-3.28q-2.04.09-3.42.35-1.39.26-2.23.66-.83.39-1.19.93-.36.53-.36 1.16 0 1.23.73 1.76t1.91.53q1.44 0 2.49-.52 1.06-.52 2.07-1.59m-9.92-10.24-.84-1.5q3.37-3.08 8.1-3.08 1.71 0 3.06.57 1.34.56 2.28 1.55.93 1 1.41 2.39.49 1.39.49 3.04v12.31h-2.13q-.67 0-1.03-.2t-.57-.81l-.42-1.4q-.74.66-1.44 1.17-.7.5-1.46.84t-1.63.52q-.86.18-1.91.18-1.23 0-2.28-.33-1.04-.33-1.8-1-.76-.66-1.18-1.65t-.42-2.3q0-.74.25-1.47t.81-1.4q.56-.66 1.45-1.25t2.19-1.03q1.31-.43 3.03-.71 1.73-.28 3.96-.33v-1.14q0-1.96-.84-2.9t-2.41-.94q-1.14 0-1.89.27-.75.26-1.32.59-.57.34-1.04.6-.46.27-1.03.27-.5 0-.84-.26-.34-.25-.55-.6m19.06-4.21h4.71v19.49h-4.71zm5.35-5.69q0 .61-.24 1.14-.25.54-.66.94t-.96.63q-.55.24-1.18.24-.6 0-1.15-.24-.54-.23-.94-.63t-.63-.94q-.24-.53-.24-1.14 0-.62.24-1.17.23-.55.63-.95t.94-.64q.55-.24 1.15-.24.63 0 1.18.24t.96.64.66.95q.24.55.24 1.17m4.2-3.05h4.7v28.23h-4.7z"/></svg>